# xmcd
#
# Track frame offsets: 
#        150
#        13880
#        27939
#        39635
#        56381
#        68286
#        83669
#        96538
#        108711
#        121399
#        133770
#        146295
#        163214
#        176599
#        190958
#        206635
#        225122
#        239001
#
# Disc length: 3427 seconds
#
# Revision: 0
# Processed by: cddbd v1.5.2PL0 Copyright (c) Steve Scherf et al.
# Submitted via: ExactAudioCopy v1.0b3
#
DISCID=f80d6112
DTITLE=Martín Rago - Tango
DYEAR=1900
DGENRE=Folk
TTITLE0=Alma en pena
TTITLE1=Melodía de arrabal
TTITLE2=Madame Ivonne
TTITLE3=Mano a mano
TTITLE4=Malena
TTITLE5=Sur
TTITLE6=Malevaje
TTITLE7=El choclo
TTITLE8=Carnaval
TTITLE9=Ventanita de arrabal
TTITLE10=Tortazos
TTITLE11=Nieblas del riachuelo
TTITLE12=Milonga del 900
TTITLE13=La mariposa
TTITLE14=Afiches
TTITLE15=Viejo ciego
TTITLE16=Milonga de Crucesitas
TTITLE17=Volver
EXTD=
EXTT0=
EXTT1=
EXTT2=
EXTT3=
EXTT4=
EXTT5=
EXTT6=
EXTT7=
EXTT8=
EXTT9=
EXTT10=
EXTT11=
EXTT12=
EXTT13=
EXTT14=
EXTT15=
EXTT16=
EXTT17=
PLAYORDER=
